<svg id="Layer_1" data-name="Layer 1" xmlns="http://www.w3.org/2000/svg" xmlns:xlink="http://www.w3.org/1999/xlink" viewBox="0 0 121 37"><defs><style>.cls-1{font-size:26.21px;fill:#2b505b;font-family:AnandaNeptouch, Ananda Neptouch;}.cls-2{fill:url(#radial-gradient);}.cls-3{fill:#fff;}.cls-4{fill:none;stroke:#18414c;stroke-linecap:round;stroke-miterlimit:10;stroke-width:0.36px;}</style><radialGradient id="radial-gradient" cx="112.12" cy="13.61" r="14.72" gradientUnits="userSpaceOnUse"><stop offset="0.04" stop-color="#df3241"/><stop offset="0.27" stop-color="#d63141"/><stop offset="0.65" stop-color="#bd2f42"/><stop offset="0.8" stop-color="#b12e43"/></radialGradient></defs><title>website header logo</title><text class="cls-1" transform="translate(0 36.31)">LASHAKUSHA</text><rect class="cls-2" x="104.01" y="5.51" width="16.22" height="16.22" rx="3.04"/><circle class="cls-3" cx="107.2" cy="8.33" r="0.27"/><circle class="cls-3" cx="117.17" cy="8.33" r="0.27"/><path class="cls-4" d="M107.2,8.33c0-4.06,2.25-7.33,5-7.33s4.95,3.27,5,7.33"/><path class="cls-3" d="M116.09,19.2l-3.32-3.45V19.2L111.52,18V9l1.25,1.2V14l.41-.35.41-.37.38-.34.3-.27.28-.25.36-.27a1.94,1.94,0,0,1,.37-.2.39.39,0,0,1,.3,0,1.18,1.18,0,0,1,.34.24,4.77,4.77,0,0,1,.35.4,5.15,5.15,0,0,1,.32.45c.09.15.18.29.25.42l-.91,1c-.06-.11-.13-.21-.21-.33a2,2,0,0,0-.27-.31,1.67,1.67,0,0,0-.28-.22.38.38,0,0,0-.27,0,1.63,1.63,0,0,0-.34.14l-.45.24-.49.3-.49.31,3.81,3.78Z"/><path class="cls-3" d="M111.54,9a2.19,2.19,0,0,1-.13.61,1.18,1.18,0,0,1-.24.42.63.63,0,0,1-.46.19h-.2V18l-1.24,1.21V9Z"/><path class="cls-3" d="M56.56,21.26h-1.9l.74-.74a.19.19,0,0,1,.13-.05h.16a.21.21,0,0,1,.13.05Z"/></svg>